<?xml version="1.0" standalone="no"?><svg xmlns="http://www.w3.org/2000/svg" viewBox="0 0 1440 320"><path fill="#0099ff" fill-opacity="1" d="M0,128L17.1,133.3C34.3,139,69,149,103,165.3C137.1,181,171,203,206,192C240,181,274,139,309,133.3C342.9,128,377,160,411,170.7C445.7,181,480,171,514,144C548.6,117,583,75,617,64C651.4,53,686,75,720,85.3C754.3,96,789,96,823,101.3C857.1,107,891,117,926,144C960,171,994,213,1029,218.7C1062.9,224,1097,192,1131,160C1165.7,128,1200,96,1234,85.3C1268.6,75,1303,85,1337,112C1371.4,139,1406,181,1423,202.7L1440,224L1440,0L1422.9,0C1405.7,0,1371,0,1337,0C1302.9,0,1269,0,1234,0C1200,0,1166,0,1131,0C1097.1,0,1063,0,1029,0C994.3,0,960,0,926,0C891.4,0,857,0,823,0C788.6,0,754,0,720,0C685.7,0,651,0,617,0C582.9,0,549,0,514,0C480,0,446,0,411,0C377.1,0,343,0,309,0C274.3,0,240,0,206,0C171.4,0,137,0,103,0C68.6,0,34,0,17,0L0,0Z"></path></svg>